<svg xmlns="http://www.w3.org/2000/svg" width="80" height="80" viewBox="0 0 80 80" fill="none">
  <title>Beatrice Finch, the observant housekeeper with brass keys</title>
  <defs><clipPath id="portrait"><circle cx="40" cy="40" r="37"/></clipPath></defs>
  <g clip-path="url(#portrait)" stroke="#1b2228" stroke-width="1.5" stroke-linecap="round" stroke-linejoin="round">
    <path fill="#d7d1b9" stroke="none" d="M0 0h80v80H0z"/>
    <path stroke="#c1bba1" stroke-width="1" d="M10 17v53m5-58v60m49-60v60m5-55v53"/>
    <path fill="#4b4d49" d="m6 81 7-17 16-8 20-1 17 10 8 16"/>
    <path fill="#323a3b" stroke="none" d="m49 58 12 5 8 18H43Z"/>
    <path fill="#ba8a69" d="m31 43 1 16 8 7 10-8-3-16"/>
    <path fill="#aeb1a4" d="M23 34q-8-14 1-22 10-11 27-3 12 3 10 18l-4 13-31 3Z"/>
    <path fill="#faf6ee" d="m19 19-3-5 5-4 1-5 7 1 4-4 7 3 6-3 5 4 7-1 2 6 5 3-3 7-8-4q-15-8-27 2l-5 4Z"/>
    <path stroke="#c2c2b3" stroke-width="1" d="m22 13 4-3 4 2 4-4 6 2 5-2 4 4 5-1 3 4m-32-8 2 3m8-5 1 3m10-3-1 3m10 0-1 3"/>
    <path fill="#d5aa83" d="M26 24q5-10 14-6 8-4 15 6l-1 17-6 10-9 3-10-6-4-12Z"/>
    <path fill="#b98866" stroke="none" d="m48 21 7 3-1 17-6 10-9 3 1-7 7-5Z"/>
    <path fill="#c5c8b9" d="M24 34q-7-11 3-18l13-1q-2 9-14 11l2 11Zm16-19q12-4 17 7l-1 14-4-1V25q-8-1-12-10Z"/>
    <path stroke="#939d92" stroke-width="1" d="M25 22q8 0 12-6m5 1 10 5M23 26l3 5m29-5-1 5"/>
    <path stroke="#696856" stroke-width="2" d="m29 31 7-1m8 0 6 2"/>
    <path d="m29 35 7 1m8-1 6-1m-11 0-3 8 5 1m-7 5 10-1"/>
    <path fill="#1b2228" stroke="none" d="M33 35h2v3h-2zm14-1h2v3h-2Z"/>
    <path stroke="#a07659" stroke-width="1" d="m27 39 5 2m14-1 5-2m-18 4-2 3m15-3 2 2m-9 6h5"/>
    <path fill="#faf6ee" d="m28 52 12 10 11-11 5 8-12 10-4-5-4 5-12-10Z"/>
    <path stroke="#c3bda8" stroke-width="1" d="m28 57 8 7m16-7-8 7"/>
    <path d="m40 65-1 15M18 65l6 15m38-14-5 14"/>
    <path stroke="#a18650" stroke-width="1" d="M50 55v3"/>
    <circle cx="50" cy="60" r="4.5" stroke="#bd994e" stroke-width="2"/>
    <g stroke="#bd994e" stroke-width="2" transform="translate(0 -8)">
      <circle cx="46" cy="73" r="2"/>
      <path d="m46 75-2 8 3 1m-2-5 2 1"/>
      <circle cx="54" cy="72" r="2"/>
      <path d="m54 74 1 9 3-1m-3-3 3-1"/>
      <path d="M50 73v11h2"/>
    </g>
    <circle cx="40" cy="72" r="1.2" fill="#bfc4b7" stroke="none"/>
    <circle cx="39.5" cy="78" r="1.2" fill="#bfc4b7" stroke="none"/>
  </g>
  <circle cx="40" cy="40" r="38" stroke="#5e5c32" stroke-width="2"/>
  <circle cx="40" cy="40" r="35.4" stroke="#faf6ee" stroke-opacity=".7" stroke-width=".7"/>
</svg>
