<svg xmlns="http://www.w3.org/2000/svg" width="80" height="80" viewBox="0 0 80 80"><title>Eight-spoke wooden ship's helm</title><g stroke="#1b2228" stroke-width="1.5" stroke-linejoin="round" stroke-linecap="round"><ellipse cx="41" cy="70" rx="24" ry="5" fill="#4a3828" opacity=".12" stroke="none"/><path d="m27 64 12-7 16 7v6l-13 7-15-7Z" fill="#4a3828"/><path d="m27 64 12-7 16 7-13 7Z" fill="#b38c62"/><path d="m35 37 12 3v25l-6 4-6-3Z" fill="#825332"/><path d="m41 41 6-3v27l-6 4Z" fill="#4a3828"/><g transform="rotate(-8 40 32)"><ellipse cx="40" cy="32" rx="19" ry="21" fill="none" stroke="#1b2228" stroke-width="7"/><ellipse cx="40" cy="32" rx="19" ry="21" fill="none" stroke="#9e5927" stroke-width="4"/><path d="M40 7v50M17 32h46M24 14l32 36M24 50l32-36" stroke="#1b2228" stroke-width="5"/><path d="M40 7v50M17 32h46M24 14l32 36M24 50l32-36" stroke="#bd9164" stroke-width="2.5"/><path d="M40 4v7m0 42v7M13 32h7m40 0h7M21 11l5 6m28 30 5 6M21 53l5-6m28-30 5-6" stroke="#825332" stroke-width="5"/><ellipse cx="40" cy="32" rx="6" ry="7" fill="#d9bd80"/><ellipse cx="40" cy="32" rx="2" ry="3" fill="#4a3828"/><path d="M26 22c2-5 6-7 10-8m12 2 5 5" fill="none" stroke="#d9bd80" stroke-width="1.5"/></g><path d="m38 58 0 5" stroke="#d9bd80"/></g></svg>
