<svg xmlns="http://www.w3.org/2000/svg" width="80" height="80" viewBox="0 0 80 80" fill="none">
  <title>Charlotte Dubois, the journalist with a beret and pocket notebook</title>
  <defs>
    <clipPath id="portrait">
    <circle cx="40" cy="40" r="37"/>
    </clipPath>
    </defs>
  <g clip-path="url(#portrait)" stroke-linecap="round" stroke-linejoin="round">
    <path d="M0 0h80v80H0Z" fill="#d8d5bd" stroke="none" stroke-width="1.5"/>
    <path d="M10 18v45m5-51v57m50-57v57m5-51v45" fill="none" stroke="#5e5c32" stroke-width="0.45"/>
    
    <path d="M9 83 14 66 30 56 40 61 50 56 65 65 72 83Z" fill="#a18f65" stroke="#1b2228" stroke-width="1.5"/>
    <path d="m31 55 9 7 9-7 2 8-11 17-11-17Z" fill="#faf6ee" stroke="#1b2228" stroke-width="1.5"/>
    <path d="m28 57 12 24H23l-3-10 6-4-5-5Zm24 0-12 24h17l3-10-6-4 5-5Z" fill="#c0ae85" stroke="#1b2228" stroke-width="1.5"/>
    <path d="m17 69 3 10m43-10-3 10" fill="none" stroke="#faf6ee" stroke-width="0.6"/>
    <path d="m32 44-1 14 9 8 10-9-3-14Z" fill="#956445" stroke="#1b2228" stroke-width="1.5"/>
    <path d="M26 30q-7-5-5 6 0 6 6 5m27-11q7-5 5 6 0 6-6 5" fill="#b88564" stroke="#1b2228" stroke-width="1.5"/>
    <path d="M25 24Q27 10 40 11 55 11 55 25L53 38 47 48 39 54 30 46 25 36Z" fill="#b88564" stroke="#1b2228" stroke-width="1.5"/>
    <path d="m47 17 7 9-2 13-6 10-7 4 2-7 6-5-2-8Z" fill="#956445" stroke="none" stroke-width="1.5"/>
    <path d="M22 40 20 26Q20 7 39 7 58 6 60 24L58 45 51 48 52 24Q42 24 36 17 31 25 26 27L29 47Z" fill="#574135" stroke="#1b2228" stroke-width="1.5"/>
    <path d="M26 19q4-7 11-7m8 1q6 1 9 8m-30 5 2 4m28-5-1 5" fill="none" stroke="#987149" stroke-width="0.8"/>
    <path d="m28 29 7-3m9 3 6 1" fill="none" stroke="#594737" stroke-width="2"/>
    <path d="m29 34 6 1m9 0 6-1" fill="none" stroke="#1b2228" stroke-width="1.1"/>
    <circle cx="33" cy="35" r="1.15" fill="#1b2228" stroke="none" stroke-width="1.5"/>
    <circle cx="46" cy="34.7" r="1.15" fill="#1b2228" stroke="none" stroke-width="1.5"/>
    <path d="m40 34-3 7 4 1" fill="none" stroke="#1b2228" stroke-width="1.1"/>
    <path d="M34 46q7 4 12-2" fill="none" stroke="#793f36" stroke-width="1.3"/>
    <path d="M18 19Q17 8 33 6 52-2 62 13L57 21 29 24Z" fill="#56604b" stroke="#1b2228" stroke-width="1.5"/>
    <path d="m24 21 32-4 1 5-32 4Z" fill="#3d493d" stroke="#1b2228" stroke-width="1.5"/>
    <path d="M40 5l2-4" fill="none" stroke="#3d493d" stroke-width="3"/>
    <path d="m27 53 12 10-12 11-7-11Zm24 0-11 10 11 11 10-11Z" fill="#c0ae85" stroke="#1b2228" stroke-width="1.5"/>
    <path d="m53 27 2 0-1 22-2-3Z" fill="#d5ad57" stroke="#1b2228" stroke-width="1.5"/>
    <path d="m48 68 14-5 7 20-16 4Z" fill="#6f4f39" stroke="#1b2228" stroke-width="1.5"/>
    <path d="m49 66 11-4 1 3-11 4Z" fill="#faf6ee" stroke="#1b2228" stroke-width="1.5"/>
    <path d="m53 72 8-3m-7 7 8-3" fill="none" stroke="#d3b586" stroke-width="0.8"/>
    <circle cx="37" cy="74" r="1.5" fill="#bd994e" stroke="#1b2228" stroke-width="0.8"/>
    <circle cx="45" cy="74" r="1.5" fill="#bd994e" stroke="#1b2228" stroke-width="0.8"/>
  </g>
  <circle cx="40" cy="40" r="37.5" stroke="#5e5c32" stroke-width="2"/>
  <circle cx="40" cy="40" r="35" stroke="#faf6ee" stroke-opacity=".7" stroke-width=".7"/>
</svg>
