<svg xmlns="http://www.w3.org/2000/svg" width="80" height="80" viewBox="0 0 80 80" fill="none">
  <title>Viktor Kroll, the veteran conductor with a walrus mustache</title>
  <defs>
    <clipPath id="portrait">
    <circle cx="40" cy="40" r="37"/>
    </clipPath>
    </defs>
  <g clip-path="url(#portrait)" stroke-linecap="round" stroke-linejoin="round">
    <path d="M0 0h80v80H0Z" fill="#cbd2d3" stroke="none" stroke-width="1.5"/>
    <path d="M10 18v45m5-51v57m50-57v57m5-51v45" fill="none" stroke="#2b3e58" stroke-width="0.45"/>
    
    <path d="M6 83 11 66Q14 60 29 56L40 61 51 56Q67 61 70 67L76 83Z" fill="#2b3e58" stroke="#1b2228" stroke-width="1.5"/>
    <path d="m31 55 9 7 9-7 2 8-11 17-11-17Z" fill="#faf6ee" stroke="#1b2228" stroke-width="1.5"/>
    <path d="m28 57 12 24H23l-3-10 6-4-5-5Zm24 0-12 24h17l3-10-6-4 5-5Z" fill="#40566b" stroke="#1b2228" stroke-width="1.5"/>
    <path d="m17 69 3 10m43-10-3 10" fill="none" stroke="#faf6ee" stroke-width="0.6"/>
    <path d="m32 44-1 14 9 8 10-9-3-14Z" fill="#b18663" stroke="#1b2228" stroke-width="1.5"/>
    <path d="M26 30q-7-5-5 6 0 6 6 5m27-11q7-5 5 6 0 6-6 5" fill="#d4a985" stroke="#1b2228" stroke-width="1.5"/>
    <path d="M24 23Q25 10 40 11 55 10 56 24L55 42 49 51 31 51 25 43Z" fill="#d4a985" stroke="#1b2228" stroke-width="1.5"/>
    <path d="m47 17 7 9-2 13-6 10-7 4 2-7 6-5-2-8Z" fill="#b18663" stroke="none" stroke-width="1.5"/>
    <path d="M26 34 22 32Q17 17 30 10L35 11 29 17 28 32Zm21-23q14 4 10 21l-5 3-1-16Z" fill="#b9b7a8" stroke="#1b2228" stroke-width="1.5"/>
    <path d="M26 19q4-7 11-7m8 1q6 1 9 8m-30 5 2 4m28-5-1 5" fill="none" stroke="#e0dcce" stroke-width="0.8"/>
    <path d="m29 29 7 2m8 0 6-2" fill="none" stroke="#594737" stroke-width="2"/>
    <path d="m29 34 6 1m9 0 6-1" fill="none" stroke="#1b2228" stroke-width="1.1"/>
    <circle cx="33" cy="35" r="1.15" fill="#1b2228" stroke="none" stroke-width="1.5"/>
    <circle cx="46" cy="34.7" r="1.15" fill="#1b2228" stroke="none" stroke-width="1.5"/>
    <path d="m40 34-3 7 4 1" fill="none" stroke="#1b2228" stroke-width="1.1"/>
    <path d="m35 47 9-1" fill="none" stroke="#793f36" stroke-width="1.3"/>
    <path d="m30 24 7-1m6 0 5 1m-20 15 5 2m14-2 4-2m-20 6-1 3m15-4 2 3m-12 4 5 1" fill="none" stroke="#987b62" stroke-width="0.8"/>
    <path d="M20 22 21 13Q40 2 59 13L60 24Z" fill="#2b3e58" stroke="#1b2228" stroke-width="1.5"/>
    <path d="m21 21 38 0-1 5-36 0Z" fill="#bd994e" stroke="#1b2228" stroke-width="1.5"/>
    <path d="M21 26q19-4 38 0-16 11-38 0Z" fill="#253039" stroke="#1b2228" stroke-width="1.5"/>
    <circle cx="40" cy="17" r="3" fill="#bd994e" stroke="#1b2228" stroke-width="1.5"/>
    <path d="M38 17h4m-2-2v4" fill="none" stroke="#2b3e58" stroke-width="1"/>
    <path d="M29 42q5-4 11 0 6-4 12 1l1 8-13-5-12 5Z" fill="#b9b7a8" stroke="#1b2228" stroke-width="1.5"/>
    <path d="m33 44-2 4m6-5-1 3m8-2 2 4m1-4 2 4" fill="none" stroke="#797e73" stroke-width="0.8"/>
    <path d="m30 55 10 7 10-7 4 8-14 6-14-6Z" fill="#2b3e58" stroke="#1b2228" stroke-width="1.5"/>
    <path d="m29 58 11 7 11-7M26 64l-3 16m31-16 3 16" fill="none" stroke="#bd994e" stroke-width="1"/>
    <circle cx="36" cy="66" r="1.5" fill="#bd994e" stroke="#1b2228" stroke-width="0.8"/>
    <circle cx="36" cy="74" r="1.5" fill="#bd994e" stroke="#1b2228" stroke-width="0.8"/>
    <circle cx="45" cy="66" r="1.5" fill="#bd994e" stroke="#1b2228" stroke-width="0.8"/>
    <circle cx="45" cy="74" r="1.5" fill="#bd994e" stroke="#1b2228" stroke-width="0.8"/>
    <path d="M50 68q10 13 13 1" fill="none" stroke="#c4c9bd" stroke-width="1.3"/>
  </g>
  <circle cx="40" cy="40" r="37.5" stroke="#2b3e58" stroke-width="2"/>
  <circle cx="40" cy="40" r="35" stroke="#faf6ee" stroke-opacity=".7" stroke-width=".7"/>
</svg>
