<svg xmlns="http://www.w3.org/2000/svg" width="80" height="80" viewBox="0 0 80 80" fill="none">
  <title>Henry Thorpe, the portly trustee with a handlebar mustache and watch fob</title>
  <defs>
    <clipPath id="portrait">
    <circle cx="40" cy="40" r="37"/>
    </clipPath>
    </defs>
  <g clip-path="url(#portrait)" stroke-linecap="round" stroke-linejoin="round">
    <path d="M0 0h80v80H0Z" fill="#ded4ba" stroke="none" stroke-width="1.5"/>
    <path d="M10 18v45m5-51v57m50-57v57m5-51v45" fill="none" stroke="#5e5c32" stroke-width="0.45"/>
    
    <path d="M6 83 11 66Q14 60 29 56L40 61 51 56Q67 61 70 67L76 83Z" fill="#545943" stroke="#1b2228" stroke-width="1.5"/>
    <path d="m31 55 9 7 9-7 2 8-11 17-11-17Z" fill="#faf6ee" stroke="#1b2228" stroke-width="1.5"/>
    <path d="m28 57 12 24H23l-3-10 6-4-5-5Zm24 0-12 24h17l3-10-6-4 5-5Z" fill="#7c8061" stroke="#1b2228" stroke-width="1.5"/>
    <path d="m17 69 3 10m43-10-3 10" fill="none" stroke="#faf6ee" stroke-width="0.6"/>
    <path d="m32 44-1 14 9 8 10-9-3-14Z" fill="#bd8d6d" stroke="#1b2228" stroke-width="1.5"/>
    <path d="M26 30q-7-5-5 6 0 6 6 5m27-11q7-5 5 6 0 6-6 5" fill="#e0b28d" stroke="#1b2228" stroke-width="1.5"/>
    <path d="M23 25Q23 11 40 11 57 11 57 27L56 40Q54 52 40 54 26 52 24 41Z" fill="#e0b28d" stroke="#1b2228" stroke-width="1.5"/>
    <path d="m47 17 7 9-2 13-6 10-7 4 2-7 6-5-2-8Z" fill="#bd8d6d" stroke="none" stroke-width="1.5"/>
    <path d="M26 34 22 32Q17 17 30 10L35 11 29 17 28 32Zm21-23q14 4 10 21l-5 3-1-16Z" fill="#5a4534" stroke="#1b2228" stroke-width="1.5"/>
    <path d="M26 19q4-7 11-7m8 1q6 1 9 8m-30 5 2 4m28-5-1 5" fill="none" stroke="#9c7c55" stroke-width="0.8"/>
    <path d="m28 29 7-3m9 3 6 1" fill="none" stroke="#594737" stroke-width="2"/>
    <path d="m29 34 6 1m9 0 6-1" fill="none" stroke="#1b2228" stroke-width="1.1"/>
    <circle cx="33" cy="35" r="1.15" fill="#1b2228" stroke="none" stroke-width="1.5"/>
    <circle cx="46" cy="34.7" r="1.15" fill="#1b2228" stroke="none" stroke-width="1.5"/>
    <path d="m40 34-3 7 4 1" fill="none" stroke="#1b2228" stroke-width="1.1"/>
    <path d="M34 46q7 4 12-2" fill="none" stroke="#793f36" stroke-width="1.3"/>
    <path d="m30 24 7-1m6 0 5 1m-20 15 5 2m14-2 4-2m-20 6-1 3m15-4 2 3m-12 4 5 1" fill="none" stroke="#987b62" stroke-width="0.8"/>
    <path d="m36 61 8 0-1 5 4 12-7 4-5-4 3-12Z" fill="#aa8540" stroke="#1b2228" stroke-width="1.5"/>
    <path d="m40 42q-5-5-10 0-5 2-7-3 0 10 16 5 15 6 18-5-5 6-9 1-4-2-8 2Z" fill="#594332" stroke="#1b2228" stroke-width="1.5"/>
    <path d="m25 69 4 11m4-10 4 11m12-12-4 11m12-12-4 11" fill="none" stroke="#c2b899" stroke-width="0.7"/>
    <path d="M47 65q15 12 12-1" fill="none" stroke="#bd994e" stroke-width="1.5"/>
    <circle cx="58" cy="64" r="2" fill="#bd994e" stroke="#1b2228" stroke-width="1.5"/>
  </g>
  <circle cx="40" cy="40" r="37.5" stroke="#5e5c32" stroke-width="2"/>
  <circle cx="40" cy="40" r="35" stroke="#faf6ee" stroke-opacity=".7" stroke-width=".7"/>
</svg>
