<svg xmlns="http://www.w3.org/2000/svg" width="80" height="80" viewBox="0 0 80 80" fill="none">
  <title>Seraphina Cross, the concertmaster with a poised violin bow</title>
  <defs>
    <clipPath id="portrait">
    <circle cx="40" cy="40" r="37"/>
    </clipPath>
    </defs>
  <g clip-path="url(#portrait)" stroke-linecap="round" stroke-linejoin="round">
    <path d="M0 0h80v80H0Z" fill="#d0d5cd" stroke="none" stroke-width="1.5"/>
    <path d="M10 18v45m5-51v57m50-57v57m5-51v45" fill="none" stroke="#23594e" stroke-width="0.45"/>
    
    <path d="M8 84 17 65 30 54 40 64 50 54 65 65 73 84Z" fill="#354b48" stroke="#1b2228" stroke-width="1.5"/>
    <path d="m32 44-1 14 9 8 10-9-3-14Z" fill="#875839" stroke="#1b2228" stroke-width="1.5"/>
    <path d="M26 30q-7-5-5 6 0 6 6 5m27-11q7-5 5 6 0 6-6 5" fill="#aa7a58" stroke="#1b2228" stroke-width="1.5"/>
    <path d="M27 23Q27 10 40 11 53 10 53 24L52 42 46 53 39 56 31 49 27 39Z" fill="#aa7a58" stroke="#1b2228" stroke-width="1.5"/>
    <path d="m47 17 7 9-2 13-6 10-7 4 2-7 6-5-2-8Z" fill="#875839" stroke="none" stroke-width="1.5"/>
    <path d="M24 35Q19 23 23 17 18 6 30 5 31-2 43 3 58-1 58 12 65 22 55 36L51 30V22Q37 24 29 17L27 35Z" fill="#293732" stroke="#1b2228" stroke-width="1.5"/>
    <path d="M26 19q4-7 11-7m8 1q6 1 9 8m-30 5 2 4m28-5-1 5" fill="none" stroke="#617263" stroke-width="0.8"/>
    <path d="m29 30 6-1m9 0 6 1" fill="none" stroke="#594737" stroke-width="2"/>
    <path d="m29 34 6 1m9 0 6-1" fill="none" stroke="#1b2228" stroke-width="1.1"/>
    <circle cx="33" cy="35" r="1.15" fill="#1b2228" stroke="none" stroke-width="1.5"/>
    <circle cx="46" cy="34.7" r="1.15" fill="#1b2228" stroke="none" stroke-width="1.5"/>
    <path d="m40 34-3 7 4 1" fill="none" stroke="#1b2228" stroke-width="1.1"/>
    <path d="M35 46q5 2 9-1" fill="none" stroke="#793f36" stroke-width="1.3"/>
    <path d="m29 54 11 10 11-10 6 10-17 13-17-13Z" fill="#536a60" stroke="#1b2228" stroke-width="1.5"/>
    <circle cx="26" cy="41" r="1.5" fill="#bd994e" stroke="#1b2228" stroke-width="1.5"/>
    <circle cx="54" cy="40" r="1.5" fill="#bd994e" stroke="#1b2228" stroke-width="1.5"/>
    <path d="m48 63 3 1m-4 2 2 0m2-1 1 2" fill="none" stroke="#d2bb85" stroke-width="0.8"/>
    <path d="m59 81 8-57" fill="none" stroke="#986a3c" stroke-width="2"/>
    <path d="m57 80 8-56" fill="none" stroke="#e4d5af" stroke-width="0.9"/>
    <path d="m57 74 4 1-1 8-4-1Z" fill="#293732" stroke="#1b2228" stroke-width="1.5"/>
    <path d="m48 80 3-12q2-3 3 0l-1 4 5-2q3 0 2 3l-5 8Z" fill="#aa7a58" stroke="#1b2228" stroke-width="1.5"/>
    <path d="m52 74 5-1m-6 4 4-1" fill="none" stroke="#684831" stroke-width="0.8"/>
  </g>
  <circle cx="40" cy="40" r="37.5" stroke="#23594e" stroke-width="2"/>
  <circle cx="40" cy="40" r="35" stroke="#faf6ee" stroke-opacity=".7" stroke-width=".7"/>
</svg>
